External Loads File
version=1
nRows=31
nColumns=13
Range=5.000000e-03-10 seconds
endheader
time 	forceRightX 	forceRightY 	forceRightZ 	pointRightX 	pointRightY 	pointRightZ 	forceLeftX 	forceLeftY 	forceLeftZ 	pointLeftX 	pointLeftY 	pointLeftZ 		
0.005000 -5.185734 100.628417 -0.000000 0.185057 0.163092 -0.147895 12.697871 122.752286 -0.000000 0.295010 0.495947 -0.380081
0.010000 -5.063096 100.684703 -0.000000 0.185069 0.163116 -0.147888 11.008285 118.547073 -0.000000 0.295009 0.495964 -0.380086
0.015000 -4.935281 100.748641 -0.000000 0.185076 0.163105 -0.147901 9.469917 114.847835 -0.000000 0.294905 0.495967 -0.380248
0.020000 -4.763861 100.789159 -0.000000 0.185072 0.163113 -0.147897 8.213379 111.845463 -0.000000 0.294850 0.495970 -0.380333
0.025000 -4.577987 100.809350 -0.000000 0.185077 0.163126 -0.147931 7.236260 109.624289 -0.000000 0.294689 0.495799 -0.380411
0.030000 -4.338382 100.833383 -0.000000 0.185088 0.163151 -0.147910 6.575116 108.173879 -0.000000 0.294689 0.495857 -0.380478
0.035000 -4.079942 100.864875 -0.000000 0.185107 0.163156 -0.147930 6.164751 107.408890 -0.000000 0.294657 0.495836 -0.380476
0.040000 -3.807529 100.878963 -0.000000 0.185121 0.163150 -0.147930 5.966013 107.182165 -0.000000 0.294661 0.495836 -0.380471
0.045000 -3.549617 100.840128 -0.000000 0.185115 0.163150 -0.147933 5.911755 107.311349 -0.000000 0.294650 0.495827 -0.380478
0.050000 -3.326509 100.738624 -0.000000 0.185127 0.163164 -0.147931 5.937621 107.613985 -0.000000 0.294646 0.495819 -0.380472
0.055000 -3.138372 100.605961 -0.000000 0.185139 0.163156 -0.147932 5.994579 107.938552 -0.000000 0.294643 0.495806 -0.380469
0.060000 -2.968922 100.492226 -0.000000 0.185139 0.163177 -0.147925 6.059860 108.188125 -0.000000 0.294638 0.495813 -0.380477
0.065000 -2.812076 100.424354 -0.000000 0.185138 0.163165 -0.147947 6.127534 108.337434 -0.000000 0.294640 0.495804 -0.380453
0.070000 -2.675900 100.391817 -0.000000 0.185146 0.163157 -0.147932 6.203758 108.412053 -0.000000 0.294629 0.495795 -0.380463
0.075000 -2.554511 100.370462 -0.000000 0.185144 0.163165 -0.147947 6.318045 108.455532 -0.000000 0.294639 0.495796 -0.380463
0.080000 -2.454676 100.345215 -0.000000 0.185130 0.163181 -0.147936 6.471095 108.512399 -0.000000 0.294639 0.495784 -0.380472
0.085000 -2.374523 100.323885 -0.000000 0.185130 0.163182 -0.147937 6.651523 108.634156 -0.000000 0.294645 0.495796 -0.380464
0.090000 -2.283171 100.340596 -0.000000 0.185113 0.163184 -0.147927 6.868298 108.879248 -0.000000 0.294647 0.495780 -0.380465
0.095000 -2.170689 100.433383 -0.000000 0.185104 0.163187 -0.147943 7.103717 109.268481 -0.000000 0.294663 0.495777 -0.380479
0.100000 -2.033240 100.619719 -0.000000 0.185093 0.163194 -0.147943 7.339663 109.767264 -0.000000 0.294674 0.495769 -0.380464
0.105000 -1.880171 100.889738 -0.000000 0.185081 0.163193 -0.147927 7.560073 110.315925 -0.000000 0.294689 0.495776 -0.380469
0.110000 -1.725978 101.205762 -0.000000 0.185056 0.163187 -0.147943 7.755193 110.832232 -0.000000 0.294699 0.495754 -0.380464
0.115000 -1.599864 101.510571 -0.000000 0.185053 0.163192 -0.147938 7.897144 111.206063 -0.000000 0.294735 0.495743 -0.380462
0.120000 -1.521070 101.756847 -0.000000 0.185034 0.163182 -0.147928 7.957423 111.329335 -0.000000 0.294755 0.495741 -0.380462
0.125000 -1.481424 101.930501 -0.000000 0.185028 0.163196 -0.147928 7.936367 111.166450 -0.000000 0.294784 0.495746 -0.380450
0.130000 -1.460710 102.041384 -0.000000 0.185025 0.163189 -0.147940 7.860028 110.795572 -0.000000 0.294821 0.495757 -0.380437
0.135000 -1.431110 102.102504 -0.000000 0.185009 0.163201 -0.147940 7.773597 110.370391 -0.000000 0.294844 0.495736 -0.380436
0.140000 -1.395590 102.123804 -0.000000 0.185000 0.163194 -0.147934 7.695773 110.054141 -0.000000 0.294843 0.495743 -0.380433
0.145000 -1.334983 102.118205 -0.000000 0.185002 0.163186 -0.147936 7.665701 109.952474 -0.000000 0.294851 0.495744 -0.380433
0.150000 -1.247243 102.100138 -0.000000 0.185012 0.163184 -0.147938 7.690418 110.097598 -0.000000 0.294848 0.495737 -0.380434
0.155000 -1.120321 102.073311 -0.000000 0.185011 0.163183 -0.147941 7.777456 110.463537 -0.000000 0.294862 0.495755 -0.380435
